<svg width="650" height="225" viewBox="0 0 650 225" fill="none" xmlns="http://www.w3.org/2000/svg">
<path d="M104.004 134C104.004 134 158.019 127.884 156.004 83C153.99 38.1163 104.004 38 104.004 38H30.5043C30.5043 38 22.5044 38 14.5044 45.5C10.0518 49.6743 9.00434 58.5 9.00434 58.5V165.5C9.00434 165.5 8.64328 173 14.5043 179C22.3191 187 30.5043 186 30.5043 186H84.5043C84.5043 186 94.5104 183.159 98.5043 179C102.557 174.78 104.004 165.5 104.004 165.5V134ZM104.004 134H71.0043C71.0043 134 66.0043 134.857 61.5043 131C57.0043 127.143 57.5043 123 57.5043 123V99.5C57.5043 99.5 58.0043 93.75 61.5043 90C65.0043 86.25 71.0043 85.5 71.0043 85.5H92.5043C92.5043 85.5 96.2345 85.5 100.004 89C102.312 91.1422 104.004 96 104.004 96V134Z" stroke="#1954FA" stroke-width="18"/>
<path d="M287.15 91.8C287.15 97.1 285.9 102.1 283.4 106.8C280.9 111.5 276.9 115.35 271.4 118.35C265.9 121.25 258.85 122.7 250.25 122.7H231.35V165H214.25V60.75H250.25C258.25 60.75 265 62.15 270.5 64.95C276.1 67.65 280.25 71.35 282.95 76.05C285.75 80.75 287.15 86 287.15 91.8ZM250.25 108.75C256.75 108.75 261.6 107.3 264.8 104.4C268 101.4 269.6 97.2 269.6 91.8C269.6 80.4 263.15 74.7 250.25 74.7H231.35V108.75H250.25ZM311.559 94.35C314.059 90.15 317.359 86.9 321.459 84.6C325.659 82.2 330.609 81 336.309 81V98.7H331.959C325.259 98.7 320.159 100.4 316.659 103.8C313.259 107.2 311.559 113.1 311.559 121.5V165H294.459V82.35H311.559V94.35ZM418.777 121.65C418.777 124.75 418.577 127.55 418.177 130.05H355.027C355.527 136.65 357.977 141.95 362.377 145.95C366.777 149.95 372.177 151.95 378.577 151.95C387.777 151.95 394.277 148.1 398.077 140.4H416.527C414.027 148 409.477 154.25 402.877 159.15C396.377 163.95 388.277 166.35 378.577 166.35C370.677 166.35 363.577 164.6 357.277 161.1C351.077 157.5 346.177 152.5 342.577 146.1C339.077 139.6 337.327 132.1 337.327 123.6C337.327 115.1 339.027 107.65 342.427 101.25C345.927 94.75 350.777 89.75 356.977 86.25C363.277 82.75 370.477 81 378.577 81C386.377 81 393.327 82.7 399.427 86.1C405.527 89.5 410.277 94.3 413.677 100.5C417.077 106.6 418.777 113.65 418.777 121.65ZM400.927 116.25C400.827 109.95 398.577 104.9 394.177 101.1C389.777 97.3 384.327 95.4 377.827 95.4C371.927 95.4 366.877 97.3 362.677 101.1C358.477 104.8 355.977 109.85 355.177 116.25H400.927ZM443.705 94.35C446.205 90.15 449.505 86.9 453.605 84.6C457.805 82.2 462.755 81 468.455 81V98.7H464.105C457.405 98.7 452.305 100.4 448.805 103.8C445.405 107.2 443.705 113.1 443.705 121.5V165H426.605V82.35H443.705V94.35ZM550.924 121.65C550.924 124.75 550.724 127.55 550.324 130.05H487.174C487.674 136.65 490.124 141.95 494.524 145.95C498.924 149.95 504.324 151.95 510.724 151.95C519.924 151.95 526.424 148.1 530.224 140.4H548.674C546.174 148 541.624 154.25 535.024 159.15C528.524 163.95 520.424 166.35 510.724 166.35C502.824 166.35 495.724 164.6 489.424 161.1C483.224 157.5 478.324 152.5 474.724 146.1C471.224 139.6 469.474 132.1 469.474 123.6C469.474 115.1 471.174 107.65 474.574 101.25C478.074 94.75 482.924 89.75 489.124 86.25C495.424 82.75 502.624 81 510.724 81C518.524 81 525.474 82.7 531.574 86.1C537.674 89.5 542.424 94.3 545.824 100.5C549.224 106.6 550.924 113.65 550.924 121.65ZM533.074 116.25C532.974 109.95 530.724 104.9 526.324 101.1C521.924 97.3 516.474 95.4 509.974 95.4C504.074 95.4 499.024 97.3 494.824 101.1C490.624 104.8 488.124 109.85 487.324 116.25H533.074ZM553.052 123.3C553.052 115 554.752 107.65 558.152 101.25C561.652 94.85 566.352 89.9 572.252 86.4C578.252 82.8 584.902 81 592.202 81C598.602 81 604.252 82.3 609.152 84.9C614.152 87.5 618.002 90.65 620.702 94.35V82.35H637.952V204.3H620.702V153C618.002 156.7 614.102 159.85 609.002 162.45C603.902 165.05 598.102 166.35 591.602 166.35C584.502 166.35 578.002 164.55 572.102 160.95C566.302 157.25 561.652 152.15 558.152 145.65C554.752 139.05 553.052 131.6 553.052 123.3ZM620.702 123.6C620.702 117.9 619.502 112.95 617.102 108.75C614.802 104.55 611.752 101.35 607.952 99.15C604.152 96.95 600.052 95.85 595.652 95.85C591.252 95.85 587.152 96.95 583.352 99.15C579.552 101.25 576.452 104.4 574.052 108.6C571.752 112.7 570.602 117.6 570.602 123.3C570.602 129 571.752 134 574.052 138.3C576.452 142.6 579.552 145.9 583.352 148.2C587.252 150.4 591.352 151.5 595.652 151.5C600.052 151.5 604.152 150.4 607.952 148.2C611.752 146 614.802 142.8 617.102 138.6C619.502 134.3 620.702 129.3 620.702 123.6Z" fill="black"/>
</svg>
